<svg width="41" height="40" fill="none" xmlns="http://www.w3.org/2000/svg"><path fill-rule="evenodd" clip-rule="evenodd" d="M20.51 0C9.167 0 0 9.168 0 20.51c0 9.066 5.874 16.74 14.024 19.456 1.018.204 1.392-.441 1.392-.985 0-.475-.034-2.105-.034-3.803-5.705 1.223-6.893-2.445-6.893-2.445-.917-2.376-2.275-2.988-2.275-2.988-1.868-1.256.136-1.256.136-1.256 2.071.136 3.158 2.105 3.158 2.105 1.833 3.124 4.787 2.241 5.976 1.698.17-1.324.713-2.241 1.29-2.75-4.55-.476-9.338-2.242-9.338-10.12 0-2.24.815-4.074 2.106-5.5-.204-.51-.917-2.615.203-5.433 0 0 1.732-.543 5.637 2.105 1.63-.441 3.396-.679 5.127-.679 1.732 0 3.498.238 5.128.68 3.905-2.65 5.636-2.106 5.636-2.106 1.12 2.818.408 4.924.204 5.433 1.324 1.426 2.105 3.26 2.105 5.5 0 7.878-4.787 9.61-9.372 10.12.748.645 1.393 1.867 1.393 3.803 0 2.75-.034 4.957-.034 5.636 0 .544.373 1.189 1.392.985 8.15-2.716 14.024-10.39 14.024-19.457C41.019 9.17 31.817 0 20.509 0Z" fill="#fff"/></svg>